Coordinates
version=1
nRows=27
nColumns=38
inDegrees=no

Units are S.I. units (second, meters, Newtons, ...)
If the header above contains a line with 'inDegrees', this indicates whether rotational values are in degrees (yes) or radians (no).

endheader
time	pelvis_tilt	pelvis_list	pelvis_rotation	pelvis_tx	pelvis_ty	pelvis_tz	hip_flexion_r	hip_adduction_r	hip_rotation_r	knee_angle_r	ankle_angle_r	subtalar_angle_r	mtp_angle_r	hip_flexion_l	hip_adduction_l	hip_rotation_l	knee_angle_l	ankle_angle_l	subtalar_angle_l	mtp_angle_l	lumbar_extension	lumbar_bending	lumbar_rotation	arm_flex_r	arm_add_r	arm_rot_r	elbow_flex_r	pro_sup_r	wrist_flex_r	wrist_dev_r	arm_flex_l	arm_add_l	arm_rot_l	elbow_flex_l	pro_sup_l	wrist_flex_l	wrist_dev_l
0	-0.503534	1.4692	-0.970944	0.681357	1.9486	0.944784	-0.188615	0.0982438	-0.204792	0.159822	-0.218268	0	0	0.334188	-0.124163	-0.0750635	0.881142	-0.174248	0	0	-0.187175	0.0917375	-0.098201	0.162858	-0.293355	0.406438	0.837975	1.54342	0	0	-0.202027	-0.249814	0.11514	0.844189	1.5708	0	0
0.01	-0.543968	1.47269	-0.928678	0.681723	1.94104	0.94322	-0.19082	0.10062	-0.203444	0.163241	-0.209292	0	0	0.344295	-0.118296	-0.073807	0.824907	-0.183127	0	0	-0.188382	0.0908917	-0.0974082	0.168227	-0.292011	0.401737	0.848732	1.54575	0	0	-0.209259	-0.25478	0.0972915	0.861182	1.5708	0	0
0.02	-0.572884	1.47541	-0.8977	0.682095	1.93272	0.941702	-0.196552	0.10253	-0.205374	0.163923	-0.202685	0	0	0.350667	-0.113505	-0.078332	0.766977	-0.19189	0	0	-0.185078	0.0917318	-0.0961033	0.171592	-0.292094	0.400069	0.85721	1.54577	0	0	-0.210344	-0.254007	0.0949111	0.861711	1.5708	0	0
0.03	-0.585187	1.47666	-0.882986	0.682451	1.92424	0.940261	-0.205382	0.104334	-0.208196	0.163378	-0.195802	0	0	0.35328	-0.108953	-0.08459	0.707454	-0.202765	0	0	-0.180824	0.0938384	-0.0962894	0.176227	-0.292363	0.402771	0.862533	1.54597	0	0	-0.207291	-0.247984	0.101943	0.848925	1.5708	0	0
0.04	-0.597366	1.47786	-0.868277	0.682723	1.91585	0.938786	-0.214102	0.106603	-0.209276	0.162798	-0.188932	0	0	0.355018	-0.104673	-0.0897339	0.647814	-0.214534	0	0	-0.18044	0.0938182	-0.0981989	0.182558	-0.291157	0.406488	0.867852	1.54524	0	0	-0.210975	-0.246352	0.0932354	0.851687	1.5708	0	0
0.05	-0.621476	1.48077	-0.84167	0.683563	1.90685	0.937105	-0.2215	0.107657	-0.212821	0.162119	-0.182464	0	0	0.356021	-0.0994915	-0.0952982	0.58751	-0.225158	0	0	-0.176397	0.0943371	-0.100815	0.187179	-0.291472	0.411456	0.873129	1.54247	0	0	-0.215446	-0.241923	0.0834418	0.852355	1.5708	0	0
0.06	-0.619872	1.48156	-0.840679	0.684128	1.8982	0.935638	-0.231266	0.108771	-0.215539	0.16274	-0.175074	0	0	0.35255	-0.093725	-0.0977571	0.528059	-0.234354	0	0	-0.177135	0.0940894	-0.103682	0.193365	-0.291042	0.416974	0.877935	1.53646	0	0	-0.219078	-0.239027	0.0741237	0.854928	1.5708	0	0
0.07	-0.615595	1.48273	-0.841927	0.685073	1.88927	0.934073	-0.240095	0.108631	-0.222297	0.166221	-0.166804	0	0	0.34763	-0.0862188	-0.0986644	0.471155	-0.238781	0	0	-0.177136	0.093608	-0.106759	0.198472	-0.291851	0.42331	0.882977	1.52738	0	0	-0.222674	-0.236836	0.06751	0.856204	1.5708	0	0
0.08	-0.599659	1.48388	-0.855328	0.686116	1.88023	0.932537	-0.248512	0.107159	-0.230267	0.172394	-0.158173	0	0	0.340149	-0.0773682	-0.0977197	0.417084	-0.238747	0	0	-0.177728	0.0922421	-0.108962	0.203161	-0.293413	0.430464	0.887795	1.51425	0	0	-0.225454	-0.235235	0.0631608	0.856533	1.5708	0	0
0.09	-0.578081	1.48532	-0.875015	0.687217	1.87111	0.931037	-0.255413	0.104479	-0.239123	0.18206	-0.149134	0	0	0.331579	-0.067728	-0.0955514	0.367391	-0.236129	0	0	-0.178182	0.0907918	-0.109643	0.206939	-0.296422	0.438472	0.893145	1.49589	0	0	-0.22627	-0.232681	0.0604459	0.854922	1.5708	0	0
0.1	-0.55113	1.48697	-0.900793	0.688339	1.86187	0.929603	-0.261579	0.101002	-0.246722	0.193315	-0.140905	0	0	0.322406	-0.0579148	-0.0934364	0.322919	-0.232228	0	0	-0.178294	0.0886045	-0.10698	0.208814	-0.301785	0.447189	0.899178	1.4703	0	0	-0.22401	-0.232133	0.0646966	0.849869	1.5708	0	0
0.11	-0.50115	1.48791	-0.949899	0.689407	1.85258	0.928386	-0.266564	0.0953441	-0.258931	0.212028	-0.127794	0	0	0.311297	-0.0475533	-0.0900154	0.283427	-0.232457	0	0	-0.18479	0.0836502	-0.102366	0.189556	-0.277126	0.374154	0.904583	1.5708	0	0	-0.222815	-0.230065	0.0605536	0.849845	1.5708	0	0
0.12	-0.461939	1.48876	-0.989762	0.690321	1.84313	0.927141	-0.27063	0.0901567	-0.267892	0.23129	-0.11759	0	0	0.302903	-0.0401397	-0.0860899	0.256841	-0.232235	0	0	-0.18709	0.0802883	-0.0995332	0.188118	-0.274574	0.36741	0.907077	1.5708	0	0	-0.221289	-0.227975	0.060453	0.845116	1.5708	0	0
0.13	-0.437345	1.49025	-1.01563	0.691171	1.83358	0.925843	-0.273187	0.08545	-0.274778	0.250669	-0.109794	0	0	0.29925	-0.0355827	-0.0845395	0.246835	-0.233202	0	0	-0.187855	0.0774675	-0.0964476	0.186247	-0.271766	0.360704	0.908592	1.5708	0	0	-0.219402	-0.225958	0.0616048	0.839056	1.5708	0	0
0.14	-0.414637	1.49079	-1.04015	0.692023	1.82394	0.924624	-0.276019	0.0808087	-0.281492	0.271228	-0.103003	0	0	0.297881	-0.0328659	-0.082299	0.253574	-0.235074	0	0	-0.189337	0.0747572	-0.0927633	0.183975	-0.26966	0.355665	0.909691	1.5708	0	0	-0.217677	-0.225405	0.0645828	0.832559	1.5708	0	0
0.15	-0.402327	1.49197	-1.05422	0.693024	1.81426	0.923386	-0.275783	0.0752152	-0.290902	0.296922	-0.096092	0	0	0.300807	-0.0313134	-0.0796456	0.276706	-0.236818	0	0	-0.18958	0.0730315	-0.0891409	0.18054	-0.268211	0.350137	0.911296	1.5708	0	0	-0.215208	-0.223983	0.0684513	0.825025	1.5708	0	0
0.16	-0.393317	1.49353	-1.06506	0.694177	1.80445	0.922225	-0.274302	0.0686777	-0.300965	0.324475	-0.0915145	0	0	0.304839	-0.0297809	-0.0763618	0.307651	-0.237228	0	0	-0.188771	0.0718854	-0.0858499	0.176379	-0.2676	0.345719	0.912447	1.5708	0	0	-0.212058	-0.221775	0.0734264	0.815934	1.5708	0	0
0.17	-0.370664	1.49506	-1.0902	0.695365	1.7944	0.9213	-0.272978	0.0603024	-0.311126	0.353256	-0.0894045	0	0	0.306362	-0.0270143	-0.0730746	0.337429	-0.235278	0	0	-0.187832	0.069164	-0.0819886	0.17197	-0.267767	0.343992	0.912033	1.56961	0	0	-0.208722	-0.220851	0.08019	0.804701	1.5708	0	0
0.18	-0.329864	1.49695	-1.13403	0.696568	1.78414	0.920702	-0.27144	0.0498109	-0.320779	0.383222	-0.0897214	0	0	0.305474	-0.0220609	-0.0711421	0.359943	-0.234711	0	0	-0.18632	0.0646866	-0.0776718	0.167539	-0.269043	0.346153	0.909566	1.55794	0	0	-0.204749	-0.220051	0.0880228	0.791391	1.5708	0	0
0.19	-0.271546	1.49931	-1.19549	0.697806	1.7737	0.920477	-0.269496	0.0377759	-0.328859	0.413435	-0.0928529	0	0	0.303719	-0.0152631	-0.071574	0.37476	-0.240344	0	0	-0.184121	0.0587471	-0.073747	0.163258	-0.270494	0.350763	0.904918	1.54225	0	0	-0.20033	-0.218993	0.0959441	0.776285	1.5708	0	0
0.2	-0.187907	1.49915	-1.28176	0.699034	1.7632	0.920882	-0.271846	0.0262747	-0.33184	0.438045	-0.100895	0	0	0.298122	-0.00796017	-0.0740529	0.384881	-0.249068	0	0	-0.18695	0.0514864	-0.0752921	0.157691	-0.258902	0.333984	0.895443	1.5708	0	0	-0.200271	-0.21453	0.0891294	0.765405	1.5708	0	0
0.21	-0.109241	1.50414	-1.36316	0.700382	1.75248	0.921154	-0.264448	0.01175	-0.336165	0.473054	-0.106864	0	0	0.297421	3.41168e-05	-0.0757378	0.394792	-0.258018	0	0	-0.178197	0.0438929	-0.0671096	0.155533	-0.275604	0.370372	0.89035	1.49365	0	0	-0.189386	-0.216133	0.112078	0.740662	1.5708	0	0
0.22	-0.0600571	1.51835	-1.41554	0.701862	1.74124	0.921266	-0.246441	-0.000793989	-0.331604	0.506157	-0.117351	0	0	0.306775	0.00592716	-0.0796018	0.407842	-0.262178	0	0	-0.176074	0.0392527	0.0620336	0.00442571	-0.273871	0.129884	0.996163	1.5708	0	0	-0.0852103	-0.224187	0.273741	0.667975	1.5708	0	0
0.23	0.0549196	1.51572	-1.53209	0.703282	1.73044	0.92203	-0.245721	-0.014041	-0.331216	0.54064	-0.130616	0	0	0.297284	0.011805	-0.0867291	0.420628	-0.261894	0	0	-0.164071	0.0283684	-0.0516064	0.115472	-0.251416	0.295152	0.87852	1.5708	0	0	-0.174145	-0.212432	0.134726	0.702447	1.5708	0	0
0.24	0.12332	1.51979	-1.60132	0.70505	1.71937	0.922636	-0.235932	-0.0242015	-0.32454	0.575546	-0.146125	0	0	0.294075	0.0161485	-0.0904856	0.430936	-0.263754	0	0	-0.157321	0.0229159	-0.0509831	0.105667	-0.25027	0.293607	0.870443	1.5708	0	0	-0.17169	-0.209805	0.13952	0.687811	1.5708	0	0
0.25	0.178862	1.52458	-1.65687	0.706956	1.70826	0.923322	-0.223501	-0.0331982	-0.315436	0.612837	-0.164255	0	0	0.290616	0.019094	-0.0921195	0.439106	-0.265325	0	0	-0.148906	0.0190501	-0.0516105	0.095971	-0.250409	0.295429	0.861582	1.5708	0	0	-0.169936	-0.207122	0.144675	0.673869	1.5708	0	0
0.26	0.225215	1.52977	-1.70254	0.708963	1.69718	0.924158	-0.20858	-0.0417459	-0.305189	0.653162	-0.18554	0	0	0.286321	0.0213842	-0.0919606	0.443598	-0.263755	0	0	-0.139557	0.0164563	-0.0538505	0.0873158	-0.251609	0.301543	0.851194	1.5708	0	0	-0.168391	-0.204421	0.150317	0.660228	1.5708	0	0
